<svg xmlns="http://www.w3.org/2000/svg" xmlns:xlink="http://www.w3.org/1999/xlink" width="2000" zoomAndPan="magnify" viewBox="0 0 1500 1499.999933" height="2000" preserveAspectRatio="xMidYMid meet" version="1.0"><defs><clipPath id="30f94efe7b"><path d="M 293.4375 293.4375 L 1206.1875 293.4375 L 1206.1875 1206.1875 L 293.4375 1206.1875 Z M 293.4375 293.4375 " clip-rule="nonzero"/></clipPath><clipPath id="190b16d9bd"><path d="M 2 1 L 913.1875 1 L 913.1875 912 L 2 912 Z M 2 1 " clip-rule="nonzero"/></clipPath><clipPath id="cb02904c31"><rect x="0" width="914" y="0" height="914"/></clipPath></defs><g clip-path="url(#30f94efe7b)"><g transform="matrix(1, 0, 0, 1, 293, 293)"><g clip-path="url(#cb02904c31)"><g clip-path="url(#190b16d9bd)"><path fill="#000000" d="M 10.054688 873.101562 L 187.363281 695.792969 C 119.523438 618.703125 80.976562 521.570312 80.976562 418.269531 C 80.976562 188.539062 267.535156 1.980469 497.265625 1.980469 C 726.992188 1.980469 913.550781 188.539062 913.550781 418.269531 C 913.550781 648 726.992188 834.558594 497.265625 834.558594 C 393.964844 834.558594 296.828125 797.554688 219.738281 728.171875 L 42.429688 905.480469 C 37.804688 910.105469 31.640625 911.648438 25.472656 911.648438 C 19.304688 911.648438 13.136719 908.5625 8.511719 905.480469 C 0.800781 896.230469 0.800781 882.351562 10.054688 873.101562 Z M 497.265625 788.304688 C 700.785156 788.304688 867.296875 621.789062 867.296875 418.269531 C 867.296875 214.75 700.785156 48.234375 497.265625 48.234375 C 293.746094 48.234375 127.230469 214.75 127.230469 418.269531 C 127.230469 621.789062 293.746094 788.304688 497.265625 788.304688 Z M 497.265625 788.304688 " fill-opacity="1" fill-rule="nonzero"/></g></g></g></g></svg>